<?xml version="1.0" encoding="UTF-8"?>
<!DOCTYPE svg PUBLIC "-//W3C//DTD SVG 1.1//EN" "http://www.w3.org/Graphics/SVG/1.1/DTD/svg11.dtd">
<svg xmlns="http://www.w3.org/2000/svg" version="1.1" width="200px" height="200px" style="shape-rendering:geometricPrecision; text-rendering:geometricPrecision; image-rendering:optimizeQuality; fill-rule:evenodd; clip-rule:evenodd" xmlns:xlink="http://www.w3.org/1999/xlink">
<g><path style="opacity:1" fill="#fefefe" d="M -0.5,-0.5 C 66.1667,-0.5 132.833,-0.5 199.5,-0.5C 199.5,66.1667 199.5,132.833 199.5,199.5C 132.833,199.5 66.1667,199.5 -0.5,199.5C -0.5,132.833 -0.5,66.1667 -0.5,-0.5 Z"/></g>
<g><path style="opacity:1" fill="#313391" d="M 138.5,26.5 C 151.666,29.276 164.666,32.776 177.5,37C 178.428,37.3879 179.095,38.0546 179.5,39C 173.6,44.3096 167.6,49.6429 161.5,55C 160.5,55.1667 159.5,55.3333 158.5,55.5C 146.506,52.0013 134.506,48.5013 122.5,45C 121.643,44.3109 120.977,43.4776 120.5,42.5C 126.222,36.7731 132.222,31.4397 138.5,26.5 Z"/></g>
<g><path style="opacity:1" fill="#303291" d="M 52.5,60.5 C 58.0129,61.8157 63.6796,61.8157 69.5,60.5C 69.3764,59.8933 69.0431,59.56 68.5,59.5C 49.7232,48.6077 31.0565,37.441 12.5,26C 60.0613,39.6265 107.728,53.2932 155.5,67C 143.288,77.3853 130.954,87.552 118.5,97.5C 124.477,105.311 130.644,112.978 137,120.5C 138.289,122.055 138.956,123.721 139,125.5C 119.667,144.833 100.333,164.167 81,183.5C 87.8438,165.463 95.0105,147.463 102.5,129.5C 92.5728,120.951 82.7395,112.284 73,103.5C 72.3333,102.167 72.3333,100.833 73,99.5C 77,95.5 81,91.5 85,87.5C 86.1871,85.9556 86.5205,84.2889 86,82.5C 81.8974,79.5732 77.3974,77.4065 72.5,76C 54.2183,70.5126 35.8849,65.1793 17.5,60C 29.1792,59.398 40.8458,59.5646 52.5,60.5 Z"/></g>
<g><path style="opacity:1" fill="#51538e" d="M 68.5,59.5 C 69.0431,59.56 69.3764,59.8933 69.5,60.5C 63.6796,61.8157 58.0129,61.8157 52.5,60.5C 58.0262,60.8214 63.3595,60.4881 68.5,59.5 Z"/></g>
</svg>
